<svg width="126" height="32" viewBox="0 0 126 32" fill="none" xmlns="http://www.w3.org/2000/svg">
    <path d="M21.5588 22.2704C23.1015 22.2869 24.7602 22.7759 26.4494 24.0342L21.4565 17.1413C18.5703 13.1606 12.607 13.1606 9.72077 17.1413L2.59637 26.971L0.0888672 30.4325C3.83491 33.1138 9.06279 32.2704 11.761 28.5479L13.2291 26.5204C13.2291 26.5204 13.2318 26.5149 13.2429 26.5039C13.3839 26.3116 13.5442 26.1413 13.7156 25.9985C13.7156 25.9957 13.7184 25.9957 13.7184 25.9957C13.8566 25.7622 18.4265 22.2265 21.5616 22.2704H21.5588Z" fill="#24907E"/>
    <path d="M30.9122 30.4257C29.4254 31.4872 27.7079 32 26.0071 32C24.8566 32 23.7144 31.7656 22.6556 31.3135C21.3105 30.7372 20.1017 29.7999 19.179 28.5344L17.7256 26.5328C17.6089 26.3728 17.481 26.2295 17.3421 26.1027C16.2638 25.1019 14.588 25.0715 13.4736 26.0062C14.6186 24.851 17.6478 22.2152 21.3578 22.2676C22.9085 22.2842 24.5759 22.7749 26.2739 24.0376C26.2739 24.0376 26.2758 24.0386 26.2795 24.0404L30.9122 30.4229V30.4257Z" fill="#24907E"/>
    <path opacity="0.35" d="M26.4511 24.1411C21.5899 22.6327 18.6111 25.0002 17.3965 26.3223C16.303 25.2652 14.6037 25.2332 13.4736 26.2204C15.1194 24.4935 20.612 19.6128 26.4511 24.1411Z" fill="#24907E"/>
    <path opacity="0.35" d="M30.9086 30.4256C29.4571 31.4871 27.7804 32 26.12 32C24.9968 32 23.8817 31.7656 22.8481 31.3134C30.7241 31.0432 24.267 24.6436 21.5811 22.2668C23.095 22.2834 24.7228 22.7742 26.3805 24.037C26.3805 24.037 26.3823 24.0379 26.3859 24.0398L30.9086 30.4228V30.4256Z" fill="#24907E"/>
    <path opacity="0.35" d="M13.4719 25.9163C13.3036 26.0611 13.1461 26.2337 13.0076 26.4286C12.9968 26.4398 12.994 26.4454 12.994 26.4454L11.5523 28.5005C8.90229 32.2737 3.76792 33.1287 0.0888672 30.4108L2.55152 26.9048C3.86295 28.2749 7.18902 30.3161 13.4692 25.919L13.4719 25.9163Z" fill="#24907E"/>
    <path opacity="0.35" d="M13.4719 25.9163C13.3036 26.061 13.1461 26.2337 13.0076 26.4286C12.9968 26.4397 12.994 26.4453 12.994 26.4453L11.5523 28.5001C11.2238 28.9679 10.8572 29.3939 10.4554 29.7698C7.64789 32.4317 3.31177 32.7908 0.0888672 30.4102L0.392966 29.9731L2.55152 26.9047C3.86295 28.2746 7.18902 30.3155 13.4692 25.919L13.4719 25.9163Z" fill="#24907E"/>
    <path opacity="0.88" d="M10.6331 29.9719C7.77748 32.3927 3.36702 32.7194 0.0888672 30.5543L0.398179 30.1568C2.22091 31.3393 5.48249 32.2864 10.6303 29.9719H10.6331Z" fill="#24907E"/>
    <path d="M17.4293 11.909C20.1872 10.8475 21.5625 7.75132 20.501 4.99339C19.4396 2.23546 16.3434 0.860179 13.5855 1.92161C10.8275 2.98304 9.45226 6.07925 10.5137 8.83718C11.5751 11.5951 14.6713 12.9704 17.4293 11.909Z" fill="#24907E"/>
    <path opacity="0.35" d="M15.5054 1.56421C13.4734 1.56421 11.7054 2.69705 10.8008 4.36606C11.6642 3.7694 12.709 3.41745 13.8391 3.41745C16.7922 3.41745 19.1898 5.81236 19.1898 8.76819C19.1898 9.69206 18.9561 10.5582 18.5437 11.3171C19.9405 10.352 20.8561 8.74069 20.8561 6.91495C20.8561 3.96187 18.4612 1.56421 15.5054 1.56421Z" fill="#24907E"/>
    <path opacity="0.35" d="M20.852 6.91495C20.852 7.53911 20.7448 8.14128 20.5441 8.69945C20.1701 9.76905 19.458 10.6847 18.5396 11.3171C18.952 10.5582 19.183 9.69206 19.183 8.76819C19.183 5.81511 16.7881 3.41745 13.8323 3.41745C12.7049 3.41745 11.6601 3.76665 10.7939 4.36606C11.6243 2.84553 13.1669 1.77043 14.9706 1.59171C15.1466 1.57246 15.3226 1.56421 15.504 1.56421C18.4571 1.56421 20.8548 3.95912 20.8548 6.91495H20.852Z" fill="#24907E"/>
    <path opacity="0.35" d="M20.5481 8.6967C20.5728 8.46848 20.5866 8.23752 20.5866 8.00105C20.5866 4.71801 18.1422 2.00965 14.9746 1.59171C15.1506 1.57246 15.3266 1.56421 15.508 1.56421C18.4611 1.56421 20.8588 3.95912 20.8588 6.91495C20.8588 7.53911 20.7515 8.14128 20.5508 8.69945L20.5481 8.6967Z" fill="#24907E"/>
    <path d="M50.1321 23L44.7721 9H47.5121L53.0321 23H50.1321ZM39.0721 23L44.5921 9H47.3321L41.9721 23H39.0721ZM41.6721 19.92V17.5H50.4521V19.92H41.6721ZM58.4495 23.24C57.3428 23.24 56.5028 22.9667 55.9295 22.42C55.3695 21.8733 55.0895 21.0933 55.0895 20.08V9.88H57.7295V19.5C57.7295 19.9267 57.8228 20.2533 58.0095 20.48C58.1961 20.6933 58.4695 20.8 58.8295 20.8C58.9628 20.8 59.1095 20.7733 59.2695 20.72C59.4295 20.6533 59.5961 20.56 59.7695 20.44L60.6895 22.42C60.3695 22.66 60.0095 22.8533 59.6095 23C59.2228 23.16 58.8361 23.24 58.4495 23.24ZM53.4695 15.24V13H60.2295V15.24H53.4695ZM66.4963 23.24C65.3897 23.24 64.5497 22.9667 63.9763 22.42C63.4163 21.8733 63.1363 21.0933 63.1363 20.08V9.88H65.7763V19.5C65.7763 19.9267 65.8697 20.2533 66.0563 20.48C66.243 20.6933 66.5163 20.8 66.8763 20.8C67.0097 20.8 67.1563 20.7733 67.3163 20.72C67.4763 20.6533 67.643 20.56 67.8163 20.44L68.7363 22.42C68.4163 22.66 68.0563 22.8533 67.6563 23C67.2697 23.16 66.883 23.24 66.4963 23.24ZM61.5163 15.24V13H68.2763V15.24H61.5163ZM74.7674 23.24C73.7808 23.24 72.9074 23.02 72.1474 22.58C71.3874 22.1267 70.7874 21.5067 70.3474 20.72C69.9208 19.9333 69.7074 19.0267 69.7074 18C69.7074 16.9733 69.9274 16.0667 70.3674 15.28C70.8208 14.4933 71.4341 13.88 72.2074 13.44C72.9941 12.9867 73.8941 12.76 74.9074 12.76C75.7874 12.76 76.5941 12.9933 77.3274 13.46C78.0741 13.9133 78.6674 14.5867 79.1074 15.48C79.5608 16.36 79.7874 17.4333 79.7874 18.7H72.2074L72.4474 18.46C72.4474 18.9533 72.5674 19.3867 72.8074 19.76C73.0608 20.12 73.3808 20.4 73.7674 20.6C74.1674 20.7867 74.5941 20.88 75.0474 20.88C75.5941 20.88 76.0408 20.7667 76.3874 20.54C76.7341 20.3 77.0008 19.9933 77.1874 19.62L79.5474 20.54C79.2674 21.1 78.9008 21.5867 78.4474 22C78.0074 22.4 77.4808 22.7067 76.8674 22.92C76.2541 23.1333 75.5541 23.24 74.7674 23.24ZM72.5874 16.98L72.3474 16.74H77.1674L76.9474 16.98C76.9474 16.5 76.8341 16.12 76.6074 15.84C76.3808 15.5467 76.1008 15.3333 75.7674 15.2C75.4474 15.0667 75.1341 15 74.8274 15C74.5208 15 74.1941 15.0667 73.8474 15.2C73.5008 15.3333 73.2008 15.5467 72.9474 15.84C72.7074 16.12 72.5874 16.5 72.5874 16.98ZM81.3216 23V13H83.8016L83.9616 14.84V23H81.3216ZM87.9416 23V17.88H90.5816V23H87.9416ZM87.9416 17.88C87.9416 17.2 87.8616 16.6733 87.7016 16.3C87.555 15.9267 87.3416 15.66 87.0616 15.5C86.7816 15.3267 86.455 15.24 86.0816 15.24C85.4016 15.2267 84.875 15.4333 84.5016 15.86C84.1416 16.2867 83.9616 16.92 83.9616 17.76H83.0816C83.0816 16.6933 83.235 15.7933 83.5416 15.06C83.8616 14.3133 84.3016 13.7467 84.8616 13.36C85.435 12.96 86.1016 12.76 86.8616 12.76C87.6483 12.76 88.3216 12.92 88.8816 13.24C89.4416 13.56 89.8683 14.06 90.1616 14.74C90.455 15.4067 90.595 16.2733 90.5816 17.34V17.88H87.9416ZM99.8088 23L99.6688 21.14V9H102.309V23H99.8088ZM96.6688 23.24C95.7488 23.24 94.9488 23.0267 94.2688 22.6C93.6022 22.1733 93.0822 21.5667 92.7088 20.78C92.3355 19.9933 92.1488 19.0667 92.1488 18C92.1488 16.92 92.3355 15.9933 92.7088 15.22C93.0822 14.4333 93.6022 13.8267 94.2688 13.4C94.9488 12.9733 95.7488 12.76 96.6688 12.76C97.5088 12.76 98.2155 12.9733 98.7888 13.4C99.3755 13.8267 99.8222 14.4333 100.129 15.22C100.435 15.9933 100.589 16.92 100.589 18C100.589 19.0667 100.435 19.9933 100.129 20.78C99.8222 21.5667 99.3755 22.1733 98.7888 22.6C98.2155 23.0267 97.5088 23.24 96.6688 23.24ZM97.3488 20.82C97.8022 20.82 98.2022 20.7 98.5488 20.46C98.9088 20.22 99.1888 19.8867 99.3888 19.46C99.5888 19.0333 99.6888 18.5467 99.6888 18C99.6888 17.4533 99.5888 16.9667 99.3888 16.54C99.1888 16.1133 98.9088 15.7867 98.5488 15.56C98.2022 15.32 97.7955 15.2 97.3288 15.2C96.8488 15.2 96.4288 15.32 96.0688 15.56C95.7088 15.7867 95.4222 16.1133 95.2088 16.54C94.9955 16.9667 94.8888 17.4533 94.8888 18C94.8888 18.5467 94.9955 19.0333 95.2088 19.46C95.4222 19.8867 95.7088 20.22 96.0688 20.46C96.4422 20.7 96.8688 20.82 97.3488 20.82ZM109.103 23.24C108.117 23.24 107.243 23.02 106.483 22.58C105.723 22.1267 105.123 21.5067 104.683 20.72C104.257 19.9333 104.043 19.0267 104.043 18C104.043 16.9733 104.263 16.0667 104.703 15.28C105.157 14.4933 105.77 13.88 106.543 13.44C107.33 12.9867 108.23 12.76 109.243 12.76C110.123 12.76 110.93 12.9933 111.663 13.46C112.41 13.9133 113.003 14.5867 113.443 15.48C113.897 16.36 114.123 17.4333 114.123 18.7H106.543L106.783 18.46C106.783 18.9533 106.903 19.3867 107.143 19.76C107.397 20.12 107.717 20.4 108.103 20.6C108.503 20.7867 108.93 20.88 109.383 20.88C109.93 20.88 110.377 20.7667 110.723 20.54C111.07 20.3 111.337 19.9933 111.523 19.62L113.883 20.54C113.603 21.1 113.237 21.5867 112.783 22C112.343 22.4 111.817 22.7067 111.203 22.92C110.59 23.1333 109.89 23.24 109.103 23.24ZM106.923 16.98L106.683 16.74H111.503L111.283 16.98C111.283 16.5 111.17 16.12 110.943 15.84C110.717 15.5467 110.437 15.3333 110.103 15.2C109.783 15.0667 109.47 15 109.163 15C108.857 15 108.53 15.0667 108.183 15.2C107.837 15.3333 107.537 15.5467 107.283 15.84C107.043 16.12 106.923 16.5 106.923 16.98ZM120.178 23.24C119.191 23.24 118.318 23.02 117.558 22.58C116.798 22.1267 116.198 21.5067 115.758 20.72C115.331 19.9333 115.118 19.0267 115.118 18C115.118 16.9733 115.338 16.0667 115.778 15.28C116.231 14.4933 116.844 13.88 117.618 13.44C118.404 12.9867 119.304 12.76 120.318 12.76C121.198 12.76 122.004 12.9933 122.738 13.46C123.484 13.9133 124.078 14.5867 124.518 15.48C124.971 16.36 125.198 17.4333 125.198 18.7H117.618L117.858 18.46C117.858 18.9533 117.978 19.3867 118.218 19.76C118.471 20.12 118.791 20.4 119.178 20.6C119.578 20.7867 120.004 20.88 120.458 20.88C121.004 20.88 121.451 20.7667 121.798 20.54C122.144 20.3 122.411 19.9933 122.598 19.62L124.958 20.54C124.678 21.1 124.311 21.5867 123.858 22C123.418 22.4 122.891 22.7067 122.278 22.92C121.664 23.1333 120.964 23.24 120.178 23.24ZM117.998 16.98L117.758 16.74H122.578L122.358 16.98C122.358 16.5 122.244 16.12 122.018 15.84C121.791 15.5467 121.511 15.3333 121.178 15.2C120.858 15.0667 120.544 15 120.238 15C119.931 15 119.604 15.0667 119.258 15.2C118.911 15.3333 118.611 15.5467 118.358 15.84C118.118 16.12 117.998 16.5 117.998 16.98Z" fill="black"/>
</svg>