<svg width="49" height="48" viewBox="0 0 49 48" fill="none" xmlns="http://www.w3.org/2000/svg">
<path d="M35 36.5C37.3022 36.5246 37.6601 36.5096 41 36.5L33.3886 25.7036C29.0813 19.7628 20.1818 19.7628 15.8744 25.7036L5.24214 40.3732L1.5 45.5391C7.09052 49.5406 14.8925 48.282 18.9193 42.7266L21.1101 39.7008C21.1101 39.7008 21.1143 39.6926 21.1308 39.6762C21.3412 39.3892 21.5805 39.135 21.8363 38.9218C21.8363 38.9177 21.8404 38.9177 21.8404 38.9177C22.0467 38.5692 28.7099 36.4344 33.3886 36.5H35Z" fill="#24907E"/>
<path d="M47.5005 45.5289C45.2816 47.113 42.7185 47.8783 40.1803 47.8783C38.4633 47.8783 36.7587 47.5285 35.1786 46.8538C33.1712 45.9938 31.3671 44.5949 29.9902 42.7063L27.8211 39.7191C27.6469 39.4805 27.4561 39.2665 27.2488 39.0773C25.6396 37.5837 23.1387 37.5384 21.4756 38.9333C23.1843 37.2093 27.705 33.2758 33.2417 33.3539C35.556 33.3786 38.0444 34.111 40.5785 35.9955C40.5785 35.9955 40.5812 35.9968 40.5868 35.9996L47.5005 45.5248V45.5289Z" fill="#24907E"/>
<path opacity="0.35" d="M40.8429 36.1498C33.5881 33.8986 29.1426 37.4319 27.3299 39.405C25.6981 37.8274 23.2515 37.5 21.4756 39.2529C23.9317 36.6757 32.5 28 40.8429 36.1498Z" fill="#24907E"/>
<path opacity="0.35" d="M47.4955 45.5286C45.3293 47.1129 42.827 47.8782 40.3491 47.8782C38.6728 47.8782 37.0087 47.5285 35.4661 46.8536C47.2201 46.4504 37.5837 36.8997 33.5752 33.3527C36.5 33 38.5 33.4999 40.7378 35.9945C40.7378 35.9945 40.7405 35.9958 40.7459 35.9986L47.4955 45.5245V45.5286Z" fill="#24907E"/>
<path opacity="0.35" d="M21.4726 38.7991C21.2213 39.0152 20.9863 39.2728 20.7797 39.5637C20.7635 39.5804 20.7594 39.5887 20.7594 39.5887L18.6078 42.6557C14.653 48.2868 6.99053 49.5627 1.5 45.5066L5.17521 40.2744C7.13235 42.3191 12.0961 45.3653 21.4685 38.8032L21.4726 38.7991Z" fill="#24907E"/>
<path opacity="0.35" d="M21.4726 38.7991C21.2213 39.0151 20.9863 39.2728 20.7797 39.5637C20.7635 39.5803 20.7594 39.5886 20.7594 39.5886L18.6078 42.6552C18.1175 43.3533 17.5704 43.9891 16.9707 44.55C12.7809 48.5225 6.30979 49.0585 1.5 45.5058L1.95383 44.8534L5.17521 40.2742C7.13235 42.3186 12.0961 45.3645 21.4685 38.8032L21.4726 38.7991Z" fill="#24907E"/>
<path opacity="0.88" d="M17.236 44.8516C12.9743 48.4643 6.39224 48.9518 1.5 45.7207L1.96161 45.1274C4.68181 46.8922 9.54933 48.3056 17.2318 44.8516H17.236Z" fill="#24907E"/>
<path d="M27.3793 17.8949C31.4951 16.3108 33.5476 11.6901 31.9635 7.57422C30.3795 3.45834 25.7588 1.4059 21.6429 2.98996C17.527 4.57402 15.4746 9.19473 17.0586 13.3106C18.6427 17.4265 23.2634 19.4789 27.3793 17.8949Z" fill="#24907E"/>
<path opacity="0.35" d="M24.5083 2.45654C21.4759 2.45654 18.8373 4.14717 17.4873 6.63797C18.7758 5.74752 20.3351 5.22227 22.0216 5.22227C26.4287 5.22227 30.007 8.79639 30.007 13.2076C30.007 14.5864 29.6582 15.879 29.0426 17.0115C31.1272 15.5712 32.4937 13.1666 32.4937 10.4419C32.4937 6.03476 28.9195 2.45654 24.5083 2.45654Z" fill="#24907E"/>
<path opacity="0.35" d="M32.487 10.4419C32.487 11.3734 32.327 12.272 32.0274 13.105C31.4694 14.7013 30.4066 16.0677 29.036 17.0115C29.6515 15.879 29.9962 14.5864 29.9962 13.2076C29.9962 8.80049 26.4221 5.22227 22.0109 5.22227C20.3285 5.22227 18.7692 5.74341 17.4766 6.63797C18.7158 4.36875 21.0179 2.7643 23.7097 2.49758C23.9723 2.46885 24.235 2.45654 24.5058 2.45654C28.9129 2.45654 32.4911 6.03066 32.4911 10.4419H32.487Z" fill="#24907E"/>
<path opacity="0.35" d="M32.0335 13.1009C32.0705 12.7603 32.091 12.4156 32.091 12.0627C32.091 7.16321 28.443 3.1213 23.7158 2.49758C23.9784 2.46885 24.2411 2.45654 24.5119 2.45654C28.919 2.45654 32.4972 6.03066 32.4972 10.4419C32.4972 11.3734 32.3372 12.272 32.0376 13.105L32.0335 13.1009Z" fill="#24907E"/>
</svg>
